PathFileType	3	(X/Y/Z)	C:\Users\koon_\Desktop\
DataRate	CameraRate	NumFrames	NumMarkers	Units	OrigDataRate	OrigDataStartFrame	OrigNumFrames
100.0	100.0	9	27	mm	100.0	255	2034	
Frame#	Time	GM:LFHD			GM:RFHD			GM:LBHD			GM:RBHD			GM:C7			GM:T10			GM:CLAV			GM:STRN			GM:RBAK			GM:LSHO			GM:LUPA			GM:LELB			GM:LFRA			GM:LWRA			GM:LWRB			GM:LFIN			GM:RSHO			GM:RUPA			GM:RELB			GM:RFRA			GM:RWRA			GM:RWRB			GM:RFIN			GM:LASI			GM:RASI			GM:LPSI			GM:RPSI			
		X1	Y1	Z1	X2	Y2	Z2	X3	Y3	Z3	X4	Y4	Z4	X5	Y5	Z5	X6	Y6	Z6	X7	Y7	Z7	X8	Y8	Z8	X9	Y9	Z9	X10	Y10	Z10	X11	Y11	Z11	X12	Y12	Z12	X13	Y13	Z13	X14	Y14	Z14	X15	Y15	Z15	X16	Y16	Z16	X17	Y17	Z17	X18	Y18	Z18	X19	Y19	Z19	X20	Y20	Z20	X21	Y21	Z21	X22	Y22	Z22	X23	Y23	Z23	X24	Y24	Z24	X25	Y25	Z25	X26	Y26	Z26	X27	Y27	Z27	
255	2.54	58.183498	1597.5098	-68.334236	-95.701286	1588.3563	-66.543335	57.34296	1583.1189	-200.88562	-105.94339	1576.0044	-181.772	-18.768589	1421.201	-252.36002	-13.583519	1229.6123	-310.73856	-3.9755628	1348.2009	-100.88486	0.43684608	1200.6554	-63.706936	-107.99727	1310.5697	-304.80646	161.15033	1392.2903	-190.40331	227.50026	1286.1321	-200.00758	252.24767	1082.6407	-265.94577	237.00746	966.05792	-174.99211	242.23785	896.34686	-152.67935	266.56696	873.33948	-210.55637	255.42921	810.35022	-132.57874	-196.72992	1382.0416	-157.89714	-258.50885	1151.5359	-185.66623	-283.90836	1073.1477	-241.81055	-265.99722	1012.0149	-172.77815	-260.86597	882.17749	-151.35378	-278.49197	862.99451	-207.65604	-277.04382	796.86353	-136.32552	132.54889	902.84265	-115.44444	-160.52203	904.66888	-110.82078	61.6717	943.49414	-323.37091	-100.30934	929.81305	-322.48581
256	2.55	58.020088	1596.8026	-65.861511	-95.813065	1587.6405	-64.028625	57.203289	1583.0168	-198.46852	-106.01354	1575.7506	-179.31535	-18.951262	1421.3778	-250.46658	-14.015717	1230.2394	-310.15125	-4.1023731	1347.5409	-99.510864	0.19967695	1199.6324	-63.13747	-108.37815	1311.1161	-303.20355	161.01117	1392.1976	-188.84941	227.64337	1286.1812	-198.6207	253.46365	1082.9363	-264.50748	238.83855	966.14618	-173.60133	244.33516	896.35852	-151.35562	269.13657	873.65503	-209.13899	257.11353	810.18225	-131.63998	-196.84622	1382.1208	-155.81213	-259.44257	1151.8892	-184.84888	-284.50916	1073.7736	-241.33058	-267.93213	1012.1546	-172.40851	-263.23627	881.86578	-152.5399	-279.84348	863.09607	-209.25073	-278.96014	795.85919	-138.89375	132.6839	902.82434	-117.02065	-160.34476	904.47467	-112.30999	61.499172	943.6394	-324.69638	-100.34983	930.07147	-323.79187
257	2.56	57.95155	1596.0933	-63.271755	-95.996994	1586.8389	-61.452629	57.037685	1582.8214	-195.94173	-105.66477	1575.5972	-176.90657	-19.077559	1421.5382	-248.51424	-14.290063	1230.9817	-309.51721	-4.0278931	1346.7963	-97.993423	0.045228276	1198.6122	-62.402573	-108.71488	1311.8451	-301.63864	160.96262	1391.9534	-187.01834	227.72168	1286.161	-197.05397	254.5242	1083.2085	-262.89322	240.53987	966.23865	-172.01155	245.81958	896.36511	-149.8797	271.69281	874.12329	-207.14594	258.64838	810.36108	-130.13272	-196.93747	1381.9573	-153.5554	-260.19345	1152.0151	-183.79593	-285.50177	1074.3267	-240.66983	-268.61688	1011.7785	-172.47533	-265.13373	881.4765	-153.35594	-281.13495	863.15277	-210.31882	-280.6004	795.1897	-140.89798	132.77074	902.54797	-118.84959	-160.04291	904.23102	-113.85142	61.249737	943.81812	-326.09433	-100.37247	930.37268	-325.18826
258	2.57	57.830929	1595.3412	-60.595043	-95.947144	1586.0365	-58.728729	56.974545	1582.5275	-193.21101	-105.77348	1575.1564	-174.28113	-19.102499	1421.6088	-246.38339	-14.57384	1231.7443	-308.77325	-4.1363373	1345.9991	-96.348526	-0.14385748	1197.473	-61.648174	-109.06691	1312.597	-299.8765	160.90677	1391.7063	-185.0291	227.77286	1286.0559	-195.34282	255.50673	1083.3853	-261.32126	241.46877	966.30603	-170.38756	246.68654	896.4599	-148.17647	274.21686	874.59125	-204.81236	259.99771	810.92963	-127.92921	-197.01012	1381.6107	-151.10345	-260.68045	1151.9094	-182.63451	-286.1524	1074.6396	-239.82214	-269.79135	1011.6968	-171.81657	-266.54538	881.06158	-154.07042	-282.34354	863.27148	-211.07108	-282.10599	794.77875	-141.98656	133.02834	902.10291	-120.77997	-159.86894	903.90985	-115.51351	61.082314	944.04877	-327.69009	-100.45388	930.54315	-326.68112
259	2.58	57.755322	1594.6057	-57.7659	-96.191444	1585.1868	-56.129276	56.964993	1582.1189	-190.4729	-105.83112	1574.5936	-171.59816	-19.127232	1421.6576	-243.95415	-14.801986	1232.4608	-307.97238	-4.1380682	1344.9724	-94.545319	-0.36896965	1196.1584	-60.999683	-109.32822	1313.3114	-298.06195	160.82834	1391.3899	-182.87141	227.83928	1285.9094	-193.40512	256.61963	1083.6348	-259.54977	242.17342	966.44025	-168.5554	247.16885	896.64209	-146.22852	276.2572	875.09784	-202.21112	261.37982	811.66516	-125.55374	-197.03358	1381.1139	-148.58549	-260.83441	1151.6528	-181.16673	-286.83661	1074.8457	-238.91493	-270.17288	1011.4506	-171.42477	-267.30029	880.64886	-154.51044	-283.48523	863.3125	-211.23985	-283.3252	794.74664	-142.51357	132.70152	901.30988	-123.44537	-159.64876	903.60211	-117.23455	60.766426	944.34833	-329.88293	-100.46019	930.81537	-328.28613
260	2.59	57.660782	1593.7606	-54.825607	-96.198715	1584.2771	-53.179306	56.944145	1581.5175	-187.57936	-106.1664	1573.7739	-168.69911	-19.201323	1421.66	-241.34407	-14.895597	1233.1993	-307.00589	-4.2295985	1343.8475	-92.498138	-0.51591724	1194.7062	-60.244019	-109.63155	1314.0007	-296.10916	160.53661	1390.8503	-180.48633	227.91321	1285.7961	-191.38849	257.61697	1083.7413	-257.75009	242.45877	966.53229	-166.6346	247.2067	896.74951	-144.32101	278.48761	875.52191	-199.67049	262.6153	812.47595	-122.9539	-196.99767	1380.4496	-145.96684	-260.84857	1151.2461	-179.61671	-287.51678	1074.8654	-237.74059	-269.83136	1010.9428	-171.3905	-267.48361	880.35095	-154.58833	-284.09491	863.60675	-211.40202	-284.36777	794.95551	-142.59729	133.01068	900.72968	-125.54211	-159.49013	903.15814	-119.1357	60.615993	944.60895	-331.48602	-100.44528	931.06055	-329.88635
261	2.6	57.613228	1592.869	-51.772339	-96.210777	1583.3462	-50.281792	56.966473	1580.731	-184.62491	-105.83488	1573.0464	-165.81734	-19.250679	1421.5736	-238.57809	-14.914442	1233.8953	-305.983	-4.1831207	1342.5962	-90.378006	-0.7940675	1192.964	-59.6567	-109.89695	1314.6278	-294.10339	160.57947	1390.6509	-177.95955	228.0408	1285.7279	-189.2117	258.86884	1083.9318	-255.68864	242.48636	966.57446	-164.76967	247.19443	896.87518	-142.2095	280.56903	876.33496	-196.66702	263.78598	813.33502	-120.23111	-196.98312	1379.5968	-143.28827	-260.71539	1150.6228	-178.01486	-288.03638	1074.797	-236.72693	-270.41473	1010.7608	-170.46153	-267.2514	879.96613	-154.38914	-285.2691	863.38281	-210.82829	-285.0925	795.18121	-142.08292	133.71878	900.10596	-127.62895	-159.32086	902.6377	-121.10298	60.366714	944.84497	-333.72678	-100.51385	931.36151	-331.55527
262	2.61	57.53933	1591.833	-48.657207	-96.245834	1582.2688	-47.240261	56.961605	1579.7021	-181.41821	-106.1026	1571.9021	-162.65718	-19.285738	1421.3782	-235.65434	-14.964471	1234.5393	-304.84235	-4.1863599	1341.0605	-88.129753	-0.66437364	1191.2073	-58.428158	-110.11972	1315.1112	-291.91922	160.47969	1390.1824	-175.20555	228.17899	1285.6031	-186.83321	259.71149	1084.0361	-253.55495	242.57086	966.62817	-162.7925	247.20184	896.95612	-140.03465	282.06183	876.59088	-193.87277	264.87561	814.18921	-117.38106	-196.93819	1378.5594	-140.4505	-260.48462	1149.8795	-176.37094	-288.52063	1074.5223	-235.63309	-269.98019	1010.0731	-170.21919	-266.80252	879.52856	-153.94322	-286.06192	863.15057	-210.04744	-285.64163	795.35144	-141.28586	133.99718	899.19281	-130.07518	-159.21906	901.99744	-123.47073	60.15078	944.99548	-335.61996	-100.51269	931.79803	-333.38977
263	2.62	57.546059	1590.6794	-45.421753	-96.274612	1581.0665	-43.918159	56.981098	1578.4869	-178.10378	-105.74087	1570.8324	-159.48402	-19.36422	1421.0148	-232.55435	-14.807297	1235.0914	-303.58893	-4.1856923	1339.4594	-85.686623	-0.72130322	1189.1486	-57.724533	-110.25843	1315.4963	-289.66205	160.29779	1389.6353	-172.33118	228.33946	1285.3925	-184.28398	260.64606	1084.0728	-251.34943	242.64696	966.51752	-160.73802	247.19952	896.82855	-137.93811	283.45108	876.93726	-191.08151	265.8075	814.90375	-114.53941	-196.84248	1377.3472	-137.50948	-260.18961	1149.0013	-174.73445	-288.84967	1074.0453	-234.53595	-269.97595	1009.4846	-169.59277	-266.12964	878.63586	-153.3559	-286.74112	862.75464	-209.01749	-285.879	795.36041	-139.98093	134.11935	898.23291	-132.8306	-159.03014	901.22736	-125.87299	59.997845	945.21332	-337.8269	-100.61723	932.20355	-335.31412
